<?xml version="1.0" encoding="UTF-8"?>
<svg xmlns="http://www.w3.org/2000/svg" xmlns:xlink="http://www.w3.org/1999/xlink" width="105pt" height="149pt" viewBox="0 0 105 149" version="1.1">
<g id="surface1">
<path style=" stroke:none;fill-rule:nonzero;fill:rgb(0%,0%,0%);fill-opacity:1;" d="M 0 84.390625 C 0.03125 86.628906 1.570312 88.546875 3.816406 88.6875 C 6.058594 88.828125 6.949219 86.792969 8.125 84.882812 C 9.53125 82.605469 12.171875 80.488281 14.492188 78.921875 C 14.605469 79.15625 14.835938 79.3125 15.097656 79.324219 L 15.222656 79.324219 C 15.597656 79.351562 15.929688 79.082031 15.980469 78.710938 L 21.140625 79.023438 C 20.914062 82.898438 20.535156 86.980469 19.929688 91.289062 C 18.136719 104.253906 26.949219 116.574219 30.597656 130.175781 C 31.570312 133.792969 31.628906 144.847656 31.609375 148.953125 L 35.335938 148.953125 L 35.132812 90.265625 C 33.699219 91.835938 31.363281 92.214844 29.507812 91.171875 C 27.648438 90.128906 26.761719 87.941406 27.371094 85.90625 C 27.976562 83.867188 29.917969 82.519531 32.046875 82.660156 C 34.171875 82.796875 35.921875 84.382812 36.261719 86.480469 C 36.496094 87.859375 36.625 138.523438 36.648438 148.953125 L 44.027344 148.953125 L 37.902344 44.699219 C 36.394531 46.335938 33.917969 46.648438 32.046875 45.4375 C 30.175781 44.222656 29.460938 41.839844 30.355469 39.804688 C 31.246094 37.765625 33.488281 36.667969 35.652344 37.210938 C 37.816406 37.753906 39.269531 39.777344 39.089844 41.992188 C 39.015625 42.917969 44.378906 133.003906 45.332031 148.953125 L 55.097656 148.953125 C 56.621094 132.15625 64.082031 49.839844 64.105469 49.53125 C 64.277344 47.375 65.953125 45.636719 68.113281 45.375 C 70.269531 45.113281 72.3125 46.40625 73 48.460938 C 73.6875 50.515625 72.824219 52.769531 70.941406 53.847656 C 69.054688 54.925781 66.667969 54.535156 65.230469 52.910156 L 56.414062 148.953125 L 63.964844 148.953125 L 65.785156 97.535156 C 65.773438 97.335938 65.890625 96.054688 65.984375 95.945312 C 66.597656 93.972656 68.460938 92.652344 70.53125 92.730469 C 72.601562 92.808594 74.363281 94.261719 74.820312 96.277344 C 75.28125 98.289062 74.324219 100.359375 72.492188 101.320312 C 70.65625 102.285156 68.402344 101.898438 66.996094 100.378906 L 65.277344 148.949219 L 69.574219 148.949219 C 70.023438 143.726562 71.035156 134.617188 72.882812 130.878906 C 76.757812 123.042969 82.652344 116.996094 83.789062 105.996094 C 84.722656 96.988281 83.921875 94.871094 83.554688 86.628906 L 88.71875 86.941406 C 88.714844 87.320312 89.007812 87.636719 89.386719 87.65625 L 89.511719 87.65625 C 89.773438 87.671875 90.019531 87.542969 90.160156 87.324219 C 92.273438 89.15625 94.636719 91.582031 95.75 94.011719 C 96.6875 96.046875 97.324219 98.171875 99.566406 98.304688 C 101.808594 98.441406 103.570312 96.722656 103.878906 94.503906 C 104.132812 92.636719 103.417969 88.699219 103.628906 85.21875 C 103.839844 81.742188 105.042969 77.917969 105.007812 76.035156 C 104.972656 73.792969 103.433594 71.875 101.191406 71.738281 C 98.949219 71.605469 98.058594 73.632812 96.878906 75.542969 C 95.476562 77.816406 92.835938 79.9375 90.515625 81.503906 C 90.402344 81.269531 90.167969 81.113281 89.90625 81.101562 L 89.785156 81.101562 C 89.40625 81.078125 89.078125 81.355469 89.035156 81.730469 L 83.40625 81.390625 C 83.316406 74.144531 83.59375 63.160156 84.863281 44.652344 L 85.078125 44.664062 C 85.078125 45.042969 85.371094 45.355469 85.75 45.382812 L 85.871094 45.382812 C 86.132812 45.398438 86.382812 45.269531 86.519531 45.050781 C 88.632812 46.882812 90.996094 49.304688 92.113281 51.734375 C 93.050781 53.773438 93.683594 55.894531 95.925781 56.03125 C 98.171875 56.167969 99.933594 54.449219 100.238281 52.230469 C 100.496094 50.359375 99.777344 46.421875 99.988281 42.945312 C 100.203125 39.46875 101.394531 35.644531 101.367188 33.761719 C 101.335938 31.519531 99.796875 29.601562 97.550781 29.464844 C 95.308594 29.328125 94.417969 31.355469 93.242188 33.265625 C 91.835938 35.542969 89.195312 37.660156 86.875 39.226562 C 86.761719 38.992188 86.53125 38.835938 86.269531 38.824219 L 86.144531 38.824219 C 85.765625 38.800781 85.4375 39.078125 85.394531 39.457031 L 85.234375 39.445312 C 85.585938 34.632812 86 29.367188 86.484375 23.570312 C 87.261719 14.296875 72.726562 4.320312 52.484375 1.089844 C 32.242188 -2.140625 14.816406 2.398438 14.535156 11.699219 C 14.339844 18.054688 15.359375 24.441406 16.660156 31.453125 L 16.460938 31.441406 C 16.464844 31.054688 16.164062 30.738281 15.777344 30.71875 L 15.65625 30.71875 C 15.394531 30.703125 15.144531 30.832031 15.007812 31.054688 C 12.894531 29.21875 10.53125 26.796875 9.414062 24.367188 C 8.484375 22.320312 7.847656 20.203125 5.605469 20.0625 C 3.363281 19.921875 1.601562 21.644531 1.292969 23.867188 C 1.039062 25.734375 1.753906 29.679688 1.542969 33.148438 C 1.332031 36.617188 0.140625 40.449219 0.164062 42.335938 C 0.199219 44.574219 1.738281 46.496094 3.980469 46.632812 C 6.222656 46.769531 7.113281 44.738281 8.292969 42.828125 C 9.695312 40.550781 12.335938 38.433594 14.65625 36.867188 C 14.769531 37.101562 15.003906 37.257812 15.265625 37.269531 L 15.386719 37.269531 C 15.765625 37.292969 16.09375 37.015625 16.136719 36.640625 L 17.667969 36.730469 C 19.621094 47.046875 21.679688 58.851562 21.34375 73.796875 L 16.289062 73.488281 C 16.289062 73.113281 15.996094 72.796875 15.617188 72.773438 L 15.496094 72.773438 C 15.234375 72.757812 14.984375 72.886719 14.847656 73.109375 C 12.734375 71.273438 10.371094 68.851562 9.253906 66.421875 C 8.320312 64.382812 7.683594 62.261719 5.4375 62.125 C 3.195312 61.992188 1.433594 63.707031 1.128906 65.929688 C 0.875 67.78125 1.589844 71.726562 1.378906 75.203125 C 1.164062 78.679688 -0.0273438 82.496094 0 84.390625 Z M 0 84.390625 "/>
</g>
</svg>
