<?xml version="1.0" encoding="UTF-8" standalone="no"?>
<svg
   xmlns:dc="http://purl.org/dc/elements/1.1/"
   xmlns:cc="http://creativecommons.org/ns#"
   xmlns:rdf="http://www.w3.org/1999/02/22-rdf-syntax-ns#"
   xmlns:svg="http://www.w3.org/2000/svg"
   xmlns="http://www.w3.org/2000/svg"
   xmlns:sodipodi="http://sodipodi.sourceforge.net/DTD/sodipodi-0.dtd"
   xmlns:inkscape="http://www.inkscape.org/namespaces/inkscape"
   viewBox="0 0 519.08 738.66"
   version="1.1"
   id="svg3945"
   sodipodi:docname="logo-rai.svg"
   inkscape:version="0.92.5 (2060ec1f9f, 2020-04-08)">
  <metadata
     id="metadata3951">
    <rdf:RDF>
      <cc:Work
         rdf:about="">
        <dc:format>image/svg+xml</dc:format>
        <dc:type
           rdf:resource="http://purl.org/dc/dcmitype/StillImage" />
        <dc:title>Bajo</dc:title>
      </cc:Work>
    </rdf:RDF>
  </metadata>
  <defs
     id="defs3949" />
  <sodipodi:namedview
     pagecolor="#ffffff"
     bordercolor="#666666"
     borderopacity="1"
     objecttolerance="10"
     gridtolerance="10"
     guidetolerance="10"
     inkscape:pageopacity="0"
     inkscape:pageshadow="2"
     inkscape:window-width="765"
     inkscape:window-height="480"
     id="namedview3947"
     showgrid="false"
     inkscape:zoom="0.31949748"
     inkscape:cx="259.54001"
     inkscape:cy="369.32999"
     inkscape:window-x="551"
     inkscape:window-y="87"
     inkscape:window-maximized="0"
     inkscape:current-layer="svg3945" />
  <title
     id="title3939">Bajo</title>
  <g
     id="Capa_2"
     data-name="Capa 2"
     transform="matrix(1.003632,0,0,0.66543802,7.6974803e-6,236.87853)">
    <g
       id="Capa_1-2"
       data-name="Capa 1">
      <path
         class="cls-1"
         d="m 0,418.39 c 0.16,11.11 7.77,20.61 18.86,21.31 11.09,0.7 15.49,-9.4 21.31,-18.86 6.95,-11.3 20,-21.81 31.47,-29.58 a 3.53,3.53 0 0 0 3,2 h 0.61 A 3.54,3.54 0 0 0 79,390.21 l 25.52,1.56 c -1.12,19.23 -3,39.47 -6,60.84 -8.85,64.32 34.71,125.43 52.75,192.9 4.8,17.94 5.1,72.77 5,93.15 h 18.41 l -1,-291.13 a 22.59,22.59 0 1 1 5.58,-18.77 c 1.17,6.84 1.8,258.15 1.92,309.9 h 36.48 L 187.38,221.5 a 22.57,22.57 0 1 1 5.86,-13.42 c -0.36,4.58 26.16,451.45 30.87,530.58 h 48.27 C 279.91,655.34 316.79,247 316.91,245.48 a 22.6,22.6 0 1 1 5.57,16.75 l -43.59,476.43 h 37.32 l 9,-255.06 c -0.05,-1 0.53,-7.35 1,-7.89 a 22.62,22.62 0 1 1 5,22 l -8.5,240.92 h 21.24 c 2.21,-25.9 7.22,-71.09 16.36,-89.63 19.16,-38.88 48.29,-68.86 53.92,-123.43 4.61,-44.68 0.65,-55.18 -1.17,-96.08 l 25.53,1.56 a 3.52,3.52 0 0 0 3.31,3.55 h 0.61 a 3.53,3.53 0 0 0 3.2,-1.66 c 10.45,9.1 22.13,21.12 27.65,33.18 4.63,10.1 7.77,20.63 18.86,21.3 11.09,0.67 19.8,-7.85 21.31,-18.86 1.27,-9.26 -2.28,-28.8 -1.23,-46.05 1.05,-17.25 7,-36.22 6.81,-45.57 -0.16,-11.11 -7.77,-20.63 -18.86,-21.3 -11.09,-0.67 -15.49,9.39 -21.31,18.86 -6.94,11.29 -20,21.8 -31.47,29.57 a 3.53,3.53 0 0 0 -3,-2 h -0.61 a 3.54,3.54 0 0 0 -3.71,3.13 l -27.82,-1.69 c -0.44,-35.94 0.93,-90.43 7.21,-182.24 l 1.06,0.06 a 3.54,3.54 0 0 0 3.31,3.56 h 0.61 a 3.5,3.5 0 0 0 3.2,-1.65 c 10.45,9.1 22.13,21.11 27.65,33.17 4.63,10.1 7.77,20.63 18.86,21.31 11.09,0.68 19.8,-7.85 21.31,-18.86 1.27,-9.27 -2.28,-28.81 -1.23,-46.06 1.05,-17.25 6.95,-36.21 6.81,-45.56 -0.16,-11.11 -7.77,-20.63 -18.86,-21.31 -11.09,-0.68 -15.49,9.39 -21.31,18.86 -6.94,11.3 -20,21.8 -31.47,29.57 a 3.53,3.53 0 0 0 -3,-2 h -0.61 a 3.53,3.53 0 0 0 -3.71,3.13 l -0.8,-0.05 c 1.74,-23.88 3.79,-50 6.18,-78.75 3.84,-46 -68,-95.49 -168.07,-111.51 C 159.4,-10.84 73.24,11.68 71.85,57.8 c -0.95,31.54 4.08,63.22 10.52,98 l -1,-0.07 A 3.52,3.52 0 0 0 78,152.16 h -0.6 a 3.53,3.53 0 0 0 -3.21,1.66 C 63.74,144.72 52.06,132.7 46.54,120.65 41.94,110.5 38.8,100 27.71,99.3 16.62,98.6 7.91,107.15 6.4,118.16 c -1.27,9.26 2.28,28.84 1.23,46.05 -1.05,17.21 -6.94,36.22 -6.81,45.57 0.16,11.11 7.77,20.63 18.86,21.31 11.09,0.68 15.49,-9.4 21.31,-18.86 6.94,-11.3 20,-21.81 31.47,-29.58 a 3.53,3.53 0 0 0 3,2 h 0.61 a 3.53,3.53 0 0 0 3.71,-3.13 l 7.57,0.46 c 9.65,51.16 19.83,109.72 18.17,183.87 l -25,-1.53 a 3.53,3.53 0 0 0 -3.31,-3.55 h -0.6 a 3.54,3.54 0 0 0 -3.21,1.66 C 62.95,353.33 51.28,341.31 45.75,329.26 41.13,319.15 37.99,308.62 26.89,307.95 15.79,307.28 7.09,315.8 5.59,326.81 4.32,336 7.86,355.58 6.81,372.82 5.76,390.06 -0.13,409 0,418.39 Z"
         id="path3941"
         inkscape:connector-curvature="0" />
    </g>
  </g>
</svg>
