<svg height="512pt" viewBox="-16 0 512 512" width="512pt" xmlns="http://www.w3.org/2000/svg">
    <path d="m445.210938 20.441406-277.0625-20.4218748c-.1875-.0117187-.375-.0195312-.5625-.0195312-18.878907 0-34.238282 15.359375-34.238282 34.238281v79.179688h-41.007812c-3.910156-16.933594-17.027344-30.382813-33.785156-34.746094v-8.804687c0-4.226563 3.4375-7.664063 7.664062-7.664063h44.601562c4.230469 0 7.664063-3.429687 7.664063-7.664063 0-4.234374-3.433594-7.664062-7.664063-7.664062h-44.601562c-12.679688 0-22.992188 10.3125-22.992188 22.992188v7.449218c-24.140624 1.820313-43.226562 22.027344-43.226562 46.625 0 13.953125 6.148438 26.492188 15.871094 35.066406l26.664062 181.386719c-3.0625 5.375-4.820312 11.582031-4.820312 18.199219 0 20.339844 16.546875 36.886719 36.882812 36.886719 6.871094 0 13.304688-1.894531 18.816406-5.175781l14.234376 96.832031c.355468 2.429687-.332032 4.792969-1.9375 6.652343-1.605469 1.859376-3.84375 2.882813-6.296876 2.882813h-10.910156c-4.097656 0-7.636718-3.058594-8.238281-7.15625l-11.4375-74.964844c-.636719-4.1875-4.550781-7.0625-8.730469-6.421875-4.1875.640625-7.0625 4.546875-6.421875 8.734375l11.429688 74.925781c1.691406 11.523438 11.753906 20.210938 23.398437 20.210938h10.910156c6.878907 0 13.402344-2.984375 17.898438-8.191406 4.496094-5.207032 6.5-12.09375 5.5-18.898438l-15.945312-108.476562c2.9375-5.292969 4.613281-11.371094 4.613281-17.839844 0-20.339844-16.546875-36.886719-36.882813-36.886719-6.769531 0-13.117187 1.84375-18.574218 5.039063l-23.25-158.175782c4.421874 1.390626 9.125 2.144532 14 2.144532 4.78125 0 9.394531-.726563 13.742187-2.0625l20.171875 137.234375c.5625 3.8125 3.835938 6.550781 7.574219 6.550781.371093 0 .746093-.027344 1.125-.082031 4.1875-.617188 7.085937-4.511719 6.46875-8.699219l-20.929688-142.390625c10.097657-7.632813 17.019531-19.261719 18.378907-32.515625h40.042968v5.1875c0 18.878906 15.359375 34.234375 34.238282 34.234375.1875 0 .375-.007813.5625-.019531l277.0625-20.421875c18.742187-.160157 33.9375-15.457031 33.9375-34.234375v-58.820313c0-18.777343-15.195313-34.074219-33.9375-34.234375zm-370.613282 316.597656c11.886719 0 21.554688 9.667969 21.554688 21.554688s-9.667969 21.554688-21.554688 21.554688c-11.886718 0-21.554687-9.667969-21.554687-21.554688s9.667969-21.554688 21.554687-21.554688zm-27.824218-181.65625c-17.335938 0-31.441407-14.105468-31.441407-31.441406 0-17.339844 14.105469-31.445312 31.441407-31.445312 17.339843 0 31.445312 14.105468 31.445312 31.445312 0 17.335938-14.105469 31.441406-31.445312 31.441406zm221.679687-132.597656 34.617187 2.550782-1.136718 117.582031-33.480469 2.46875zm-15.328125 123.730469-35.703125 2.632813v-130.125l35.703125 2.632812zm65.265625-120.050781 36.796875 2.710937v109.820313l-37.914062 2.792968zm52.125 3.84375 37.257813 2.746094-1.523438 102.179687-35.734375 2.632813zm-203.191406 122.53125c-10.304688-.136719-18.648438-8.566406-18.648438-18.902344v-99.699219c0-10.339843 8.34375-18.765625 18.648438-18.90625l34.769531 2.5625v132.382813zm296.496093-39.34375c0 10.425781-8.484374 18.90625-18.910156 18.90625-.1875 0-.375.007812-.5625.023437l-22.75 1.675781 1.488282-99.917968 21.261718 1.566406c.1875.011719.375.019531.5625.019531 10.425782 0 18.910156 8.480469 18.910156 18.90625zm0 0"/>
</svg>