<?xml version="1.0" encoding="UTF-8" standalone="no"?>
<svg
   xmlns:dc="http://purl.org/dc/elements/1.1/"
   xmlns:cc="http://creativecommons.org/ns#"
   xmlns:rdf="http://www.w3.org/1999/02/22-rdf-syntax-ns#"
   xmlns:svg="http://www.w3.org/2000/svg"
   xmlns="http://www.w3.org/2000/svg"
   xmlns:sodipodi="http://sodipodi.sourceforge.net/DTD/sodipodi-0.dtd"
   xmlns:inkscape="http://www.inkscape.org/namespaces/inkscape"
   viewBox="0 0 36 23.85"
   version="1.1"
   id="svg3933"
   sodipodi:docname="shotgun-a.svg"
   inkscape:version="0.92.5 (2060ec1f9f, 2020-04-08)">
  <metadata
     id="metadata3937">
    <rdf:RDF>
      <cc:Work
         rdf:about="">
        <dc:format>image/svg+xml</dc:format>
        <dc:type
           rdf:resource="http://purl.org/dc/dcmitype/StillImage" />
        <dc:title>Recurso 1</dc:title>
      </cc:Work>
    </rdf:RDF>
  </metadata>
  <sodipodi:namedview
     pagecolor="#ffffff"
     bordercolor="#666666"
     borderopacity="1"
     objecttolerance="10"
     gridtolerance="10"
     guidetolerance="10"
     inkscape:pageopacity="0"
     inkscape:pageshadow="2"
     inkscape:window-width="1366"
     inkscape:window-height="705"
     id="namedview3935"
     showgrid="false"
     inkscape:zoom="9.6944444"
     inkscape:cx="327.38938"
     inkscape:cy="479.6785"
     inkscape:window-x="-8"
     inkscape:window-y="-8"
     inkscape:window-maximized="1"
     inkscape:current-layer="svg3933" />
  <defs
     id="defs3925">
    <style
       id="style3923">.cls-1{fill:#000;}</style>
  </defs>
  <title
     id="title3927">Recurso 1</title>
  <g
     id="Capa_2"
     data-name="Capa 2"
     transform="matrix(14.178405,0,0,20.608134,1.518811,-477.903)">
    <g
       id="Capa_1-2"
       data-name="Capa 1">
      <path
         class="cls-1"
         d="M 33.64,16 C 31.41,13.77 32.14,12 32.98,9.9 A 6.88,6.88 0 0 0 33.7,5.41 4.5,4.5 0 0 0 30,2.25 9.43,9.43 0 0 0 27.45,2.06 V 1.76 A 0.35,0.35 0 0 0 27.1,1.41 h -1 V 0.76 C 26.1,0.34 25.64,0 25.1,0 h -3.77 c -0.57,0 -1,0.34 -1,0.76 V 1.41 H 1.15 a 1.15,1.15 0 1 0 0,2.29 H 1.34 V 2.42 H 1.8 V 3.7 H 2.34 V 2.42 H 2.8 V 3.7 H 3.34 V 2.42 H 3.79 V 3.7 H 4.33 V 2.42 H 4.79 V 3.7 H 5.33 V 2.42 H 5.79 V 3.7 H 6.32 V 2.42 H 6.78 V 3.7 H 7.32 V 2.42 H 7.78 V 3.7 H 8.32 V 2.42 H 8.78 V 3.7 H 9.31 V 2.42 H 9.77 V 3.7 h 0.54 V 2.42 h 0.46 V 3.7 h 0.54 V 2.42 h 0.45 V 3.7 H 12.3 V 2.42 h 0.46 V 3.7 H 13.3 V 2.42 h 0.46 V 3.7 h 0.53 V 2.42 h 0.46 V 3.7 h 0.54 V 2.42 h 0.46 V 3.7 h 0.54 V 2.42 h 0.46 V 3.7 h 0.53 V 2.42 h 0.46 V 3.7 h 0.54 V 2.42 h 0.46 V 3.7 h 1.56 v 0.82 c 0,0.42 0.46,0.76 1,0.76 h -0.22 a 0.67,0.67 0 0 0 -0.6,1.14 c 0.9,0.89 3,1.14 2.8,1.71 -0.4,1.13 0.91,1.83 0.91,1.83 l 1.41,11.93 a 1,1 0 0 0 1.15,0.88 l 3.73,-0.55 a 1.5,1.5 0 0 0 1.23,-1.93 l -2.91,-9.46 0.66,-0.17 a 1,1 0 0 0 0.63,-1.41 7.63,7.63 0 0 0 -0.64,-1 1.38,1.38 0 0 0 -1.15,-0.5 L 27,7.88 25.4,5.23 A 0.83,0.83 0 0 0 26.08,4.52 V 3.7 h 1 a 0.35,0.35 0 0 0 0.35,-0.34 v -0.6 a 9.21,9.21 0 0 1 2.41,0.18 3.77,3.77 0 0 1 3.16,2.66 6.21,6.21 0 0 1 -0.7,4.05 9,9 0 0 0 -0.86,3.24 5,5 0 0 0 1.68,3.62 c 1.49,1.49 2.22,2.93 2.15,4.29 a 3.55,3.55 0 0 1 -1.14,2.42 0.35,0.35 0 0 0 0,0.5 0.37,0.37 0 0 0 0.27,0.13 0.35,0.35 0 0 0 0.22,-0.08 A 4.2,4.2 0 0 0 36,20.85 C 36.07,19.28 35.28,17.65 33.64,16 Z"
         id="path3929"
         inkscape:connector-curvature="0"
         style="fill:#000000" />
    </g>
  </g>
</svg>
