<?xml version="1.0" encoding="UTF-8"?>
<svg xmlns="http://www.w3.org/2000/svg" xmlns:xlink="http://www.w3.org/1999/xlink" width="225pt" height="150pt" viewBox="0 0 225 150" version="1.1">
<g id="surface1">
<path style=" stroke:none;fill-rule:nonzero;fill:rgb(0%,0%,0%);fill-opacity:1;" d="M 210.25 100.46875 C 196.3125 86.53125 200.875 75.46875 206.125 62.34375 C 210.761719 53.769531 212.347656 43.875 210.625 34.28125 C 207.449219 23.738281 198.410156 16.019531 187.5 14.53125 C 182.265625 13.414062 176.902344 13.015625 171.5625 13.34375 L 171.5625 11.46875 C 171.5625 10.261719 170.582031 9.28125 169.375 9.28125 L 163.125 9.28125 L 163.125 5.21875 C 163.125 2.59375 160.25 0.46875 156.875 0.46875 L 133.3125 0.46875 C 129.75 0.46875 127.0625 2.59375 127.0625 5.21875 L 127.0625 9.28125 L 7.1875 9.28125 C 4.472656 9.027344 1.84375 10.332031 0.40625 12.652344 C -1.027344 14.972656 -1.027344 17.902344 0.40625 20.222656 C 1.84375 22.542969 4.472656 23.847656 7.1875 23.59375 L 8.375 23.59375 L 8.375 15.59375 L 11.25 15.59375 L 11.25 23.59375 L 14.625 23.59375 L 14.625 15.59375 L 17.5 15.59375 L 17.5 23.59375 L 20.875 23.59375 L 20.875 15.59375 L 23.6875 15.59375 L 23.6875 23.59375 L 27.0625 23.59375 L 27.0625 15.59375 L 29.9375 15.59375 L 29.9375 23.59375 L 33.3125 23.59375 L 33.3125 15.59375 L 36.1875 15.59375 L 36.1875 23.59375 L 39.5 23.59375 L 39.5 15.59375 L 42.375 15.59375 L 42.375 23.59375 L 45.75 23.59375 L 45.75 15.59375 L 48.625 15.59375 L 48.625 23.59375 L 52 23.59375 L 52 15.59375 L 54.875 15.59375 L 54.875 23.59375 L 58.1875 23.59375 L 58.1875 15.59375 L 61.0625 15.59375 L 61.0625 23.59375 L 64.4375 23.59375 L 64.4375 15.59375 L 67.3125 15.59375 L 67.3125 23.59375 L 70.6875 23.59375 L 70.6875 15.59375 L 73.5 15.59375 L 73.5 23.59375 L 76.875 23.59375 L 76.875 15.59375 L 79.75 15.59375 L 79.75 23.59375 L 83.125 23.59375 L 83.125 15.59375 L 86 15.59375 L 86 23.59375 L 89.3125 23.59375 L 89.3125 15.59375 L 92.1875 15.59375 L 92.1875 23.59375 L 95.5625 23.59375 L 95.5625 15.59375 L 98.4375 15.59375 L 98.4375 23.59375 L 101.8125 23.59375 L 101.8125 15.59375 L 104.6875 15.59375 L 104.6875 23.59375 L 108 23.59375 L 108 15.59375 L 110.875 15.59375 L 110.875 23.59375 L 114.25 23.59375 L 114.25 15.59375 L 117.125 15.59375 L 117.125 23.59375 L 126.875 23.59375 L 126.875 28.71875 C 126.875 31.34375 129.75 33.46875 133.125 33.46875 L 131.75 33.46875 C 129.921875 33.085938 128.058594 33.964844 127.1875 35.617188 C 126.320312 37.269531 126.648438 39.300781 128 40.59375 C 133.625 46.15625 146.75 47.71875 145.5 51.28125 C 143 58.34375 151.1875 62.71875 151.1875 62.71875 L 160 137.28125 C 160.183594 138.980469 161.058594 140.53125 162.414062 141.570312 C 163.773438 142.609375 165.5 143.046875 167.1875 142.78125 L 190.5 139.34375 C 193.230469 138.972656 195.65625 137.417969 197.136719 135.09375 C 198.617188 132.769531 199.003906 129.914062 198.1875 127.28125 L 180 68.15625 L 184.125 67.09375 C 185.925781 66.597656 187.410156 65.324219 188.175781 63.617188 C 188.9375 61.910156 188.894531 59.953125 188.0625 58.28125 C 186.894531 56.097656 185.554688 54.007812 184.0625 52.03125 C 182.304688 49.898438 179.632812 48.738281 176.875 48.90625 L 168.75 49.71875 L 158.75 33.15625 C 160.984375 32.765625 162.707031 30.96875 163 28.71875 L 163 23.59375 L 169.25 23.59375 C 170.433594 23.59375 171.402344 22.652344 171.4375 21.46875 L 171.4375 17.71875 C 176.484375 17.429688 181.550781 17.808594 186.5 18.84375 C 195.804688 19.964844 203.558594 26.492188 206.25 35.46875 C 207.707031 44.160156 206.164062 53.085938 201.875 60.78125 C 198.832031 67.136719 197.007812 74.003906 196.5 81.03125 C 196.707031 89.703125 200.511719 97.898438 207 103.65625 C 216.3125 112.96875 220.875 121.96875 220.4375 130.46875 C 220.125 136.246094 217.570312 141.675781 213.3125 145.59375 C 212.890625 146.003906 212.65625 146.566406 212.65625 147.15625 C 212.65625 147.746094 212.890625 148.308594 213.3125 148.71875 C 213.734375 149.214844 214.347656 149.511719 215 149.53125 C 215.503906 149.527344 215.988281 149.351562 216.375 149.03125 C 221.566406 144.339844 224.671875 137.769531 225 130.78125 C 225.4375 120.96875 220.5 110.78125 210.25 100.46875 Z M 210.25 100.46875 "/>
</g>
</svg>
